{
	"asset":{
		"generator":"Khronos glTF Blender I/O v4.0.44",
		"version":"2.0"
	},
	"extensionsUsed":[
		"KHR_materials_specular",
		"KHR_materials_ior"
	],
	"scene":0,
	"scenes":[
		{
			"name":"Scene",
			"nodes":[
				0,
				1
			]
		}
	],
	"nodes":[
		{
			"mesh":0,
			"name":"Cristo",
			"rotation":[
				0,
				-0.5297319889068604,
				0,
				0.8481652140617371
			],
			"scale":[
				0.22429414093494415,
				0.22429412603378296,
				0.22429414093494415
			],
			"translation":[
				3.966120719909668,
				43.111114501953125,
				3.5456066131591797
			]
		},
		{
			"mesh":1,
			"name":"Escenario",
			"scale":[
				0.699999988079071,
				0.699999988079071,
				0.699999988079071
			]
		}
	],
	"materials":[
		{
			"doubleSided":true,
			"extensions":{
				"KHR_materials_specular":{
					"specularColorFactor":[
						1.0145454406738281,
						1.0145454406738281,
						1.0145454406738281
					]
				},
				"KHR_materials_ior":{
					"ior":1.4500000476837158
				}
			},
			"name":"Material.001",
			"pbrMetallicRoughness":{
				"baseColorTexture":{
					"index":0
				},
				"metallicFactor":0,
				"roughnessFactor":0.503636360168457
			}
		},
		{
			"doubleSided":true,
			"extensions":{
				"KHR_materials_specular":{
					"specularFactor":0
				},
				"KHR_materials_ior":{
					"ior":4.049999713897705
				}
			},
			"name":"Material #2131682211.002",
			"pbrMetallicRoughness":{
				"baseColorTexture":{
					"index":1
				},
				"metallicFactor":0.7963640093803406
			}
		},
		{
			"doubleSided":true,
			"extensions":{
				"KHR_materials_specular":{
					"specularFactor":0
				},
				"KHR_materials_ior":{
					"ior":1.4500000476837158
				}
			},
			"name":"Material #2131682212.001",
			"pbrMetallicRoughness":{
				"baseColorTexture":{
					"index":2
				},
				"metallicFactor":0,
				"roughnessFactor":0.5527864098548889
			}
		},
		{
			"doubleSided":true,
			"extensions":{
				"KHR_materials_specular":{
					"specularFactor":0
				},
				"KHR_materials_ior":{
					"ior":1.4500000476837158
				}
			},
			"name":"Material #2131682213.002",
			"pbrMetallicRoughness":{
				"baseColorTexture":{
					"index":3
				},
				"metallicFactor":0,
				"roughnessFactor":0.5527864098548889
			}
		},
		{
			"doubleSided":true,
			"extensions":{
				"KHR_materials_specular":{
					"specularFactor":0
				},
				"KHR_materials_ior":{
					"ior":1.4500000476837158
				}
			},
			"name":"Material #2131682214.002",
			"pbrMetallicRoughness":{
				"baseColorTexture":{
					"index":4
				},
				"metallicFactor":0,
				"roughnessFactor":0.4073318541049957
			}
		},
		{
			"doubleSided":true,
			"extensions":{
				"KHR_materials_specular":{
					"specularFactor":0
				},
				"KHR_materials_ior":{
					"ior":1.4500000476837158
				}
			},
			"name":"Material #2131682215.002",
			"pbrMetallicRoughness":{
				"baseColorTexture":{
					"index":5
				},
				"metallicFactor":0,
				"roughnessFactor":0.5527864098548889
			}
		}
	],
	"meshes":[
		{
			"name":"Mesh.002",
			"primitives":[
				{
					"attributes":{
						"POSITION":0,
						"NORMAL":1,
						"TEXCOORD_0":2
					},
					"indices":3,
					"material":0
				}
			]
		},
		{
			"name":"Mesh.008",
			"primitives":[
				{
					"attributes":{
						"POSITION":4,
						"NORMAL":5,
						"TEXCOORD_0":6
					},
					"indices":7,
					"material":1
				},
				{
					"attributes":{
						"POSITION":8,
						"NORMAL":9,
						"TEXCOORD_0":10
					},
					"indices":11,
					"material":2
				},
				{
					"attributes":{
						"POSITION":12,
						"NORMAL":13,
						"TEXCOORD_0":14
					},
					"indices":15,
					"material":3
				},
				{
					"attributes":{
						"POSITION":16,
						"NORMAL":17,
						"TEXCOORD_0":18
					},
					"indices":19,
					"material":4
				},
				{
					"attributes":{
						"POSITION":20,
						"NORMAL":21,
						"TEXCOORD_0":22
					},
					"indices":23,
					"material":5
				}
			]
		}
	],
	"textures":[
		{
			"sampler":0,
			"source":0
		},
		{
			"sampler":0,
			"source":1
		},
		{
			"sampler":0,
			"source":2
		},
		{
			"sampler":0,
			"source":2
		},
		{
			"sampler":0,
			"source":3
		},
		{
			"sampler":1,
			"source":3
		}
	],
	"images":[
		{
			"mimeType":"image/png",
			"name":"snow_02_translucent_8k",
			"uri":"snow_02_translucent_8k.png"
		},
		{
			"mimeType":"image/jpeg",
			"name":"metal_plate_02_diff_4k",
			"uri":"metal_plate_02_diff_4k.jpg"
		},
		{
			"mimeType":"image/jpeg",
			"name":"brick_wall_02_diff_4k",
			"uri":"brick_wall_02_diff_4k.jpg"
		},
		{
			"mimeType":"image/png",
			"name":"rock_tile_floor_disp_4k",
			"uri":"rock_tile_floor_disp_4k.png"
		}
	],
	"accessors":[
		{
			"bufferView":0,
			"componentType":5126,
			"count":110424,
			"max":[
				25.87618064880371,
				307.8929748535156,
				113.95844268798828
			],
			"min":[
				-27.58502769470215,
				0,
				-122.74311828613281
			],
			"type":"VEC3"
		},
		{
			"bufferView":1,
			"componentType":5126,
			"count":110424,
			"type":"VEC3"
		},
		{
			"bufferView":2,
			"componentType":5126,
			"count":110424,
			"type":"VEC2"
		},
		{
			"bufferView":3,
			"componentType":5125,
			"count":573051,
			"type":"SCALAR"
		},
		{
			"bufferView":4,
			"componentType":5126,
			"count":5084,
			"max":[
				77.20752716064453,
				62.2567138671875,
				91.3285140991211
			],
			"min":[
				-77.20624542236328,
				-1.1444091796875e-05,
				-77.20624542236328
			],
			"type":"VEC3"
		},
		{
			"bufferView":5,
			"componentType":5126,
			"count":5084,
			"type":"VEC3"
		},
		{
			"bufferView":6,
			"componentType":5126,
			"count":5084,
			"type":"VEC2"
		},
		{
			"bufferView":7,
			"componentType":5123,
			"count":8505,
			"type":"SCALAR"
		},
		{
			"bufferView":8,
			"componentType":5126,
			"count":214,
			"max":[
				76.3336410522461,
				56.295494079589844,
				90.31809997558594
			],
			"min":[
				-76.33362579345703,
				-1.1444091796875e-05,
				-76.3336181640625
			],
			"type":"VEC3"
		},
		{
			"bufferView":9,
			"componentType":5126,
			"count":214,
			"type":"VEC3"
		},
		{
			"bufferView":10,
			"componentType":5126,
			"count":214,
			"type":"VEC2"
		},
		{
			"bufferView":11,
			"componentType":5123,
			"count":435,
			"type":"SCALAR"
		},
		{
			"bufferView":12,
			"componentType":5126,
			"count":328,
			"max":[
				73.37178802490234,
				61.74946975708008,
				87.48628997802734
			],
			"min":[
				-73.37178039550781,
				13.984315872192383,
				-73.37177276611328
			],
			"type":"VEC3"
		},
		{
			"bufferView":13,
			"componentType":5126,
			"count":328,
			"type":"VEC3"
		},
		{
			"bufferView":14,
			"componentType":5126,
			"count":328,
			"type":"VEC2"
		},
		{
			"bufferView":15,
			"componentType":5123,
			"count":516,
			"type":"SCALAR"
		},
		{
			"bufferView":16,
			"componentType":5126,
			"count":112,
			"max":[
				17.32120132446289,
				61.74946975708008,
				17.321212768554688
			],
			"min":[
				-7.2106170654296875,
				47.895198822021484,
				-7.210609436035156
			],
			"type":"VEC3"
		},
		{
			"bufferView":17,
			"componentType":5126,
			"count":112,
			"type":"VEC3"
		},
		{
			"bufferView":18,
			"componentType":5126,
			"count":112,
			"type":"VEC2"
		},
		{
			"bufferView":19,
			"componentType":5123,
			"count":240,
			"type":"SCALAR"
		},
		{
			"bufferView":20,
			"componentType":5126,
			"count":56,
			"max":[
				16.667800903320312,
				59.54538345336914,
				16.66781234741211
			],
			"min":[
				-6.557212829589844,
				51.3828239440918,
				-6.5572052001953125
			],
			"type":"VEC3"
		},
		{
			"bufferView":21,
			"componentType":5126,
			"count":56,
			"type":"VEC3"
		},
		{
			"bufferView":22,
			"componentType":5126,
			"count":56,
			"type":"VEC2"
		},
		{
			"bufferView":23,
			"componentType":5123,
			"count":120,
			"type":"SCALAR"
		}
	],
	"bufferViews":[
		{
			"buffer":0,
			"byteLength":1325088,
			"byteOffset":0,
			"target":34962
		},
		{
			"buffer":0,
			"byteLength":1325088,
			"byteOffset":1325088,
			"target":34962
		},
		{
			"buffer":0,
			"byteLength":883392,
			"byteOffset":2650176,
			"target":34962
		},
		{
			"buffer":0,
			"byteLength":2292204,
			"byteOffset":3533568,
			"target":34963
		},
		{
			"buffer":0,
			"byteLength":61008,
			"byteOffset":5825772,
			"target":34962
		},
		{
			"buffer":0,
			"byteLength":61008,
			"byteOffset":5886780,
			"target":34962
		},
		{
			"buffer":0,
			"byteLength":40672,
			"byteOffset":5947788,
			"target":34962
		},
		{
			"buffer":0,
			"byteLength":17010,
			"byteOffset":5988460,
			"target":34963
		},
		{
			"buffer":0,
			"byteLength":2568,
			"byteOffset":6005472,
			"target":34962
		},
		{
			"buffer":0,
			"byteLength":2568,
			"byteOffset":6008040,
			"target":34962
		},
		{
			"buffer":0,
			"byteLength":1712,
			"byteOffset":6010608,
			"target":34962
		},
		{
			"buffer":0,
			"byteLength":870,
			"byteOffset":6012320,
			"target":34963
		},
		{
			"buffer":0,
			"byteLength":3936,
			"byteOffset":6013192,
			"target":34962
		},
		{
			"buffer":0,
			"byteLength":3936,
			"byteOffset":6017128,
			"target":34962
		},
		{
			"buffer":0,
			"byteLength":2624,
			"byteOffset":6021064,
			"target":34962
		},
		{
			"buffer":0,
			"byteLength":1032,
			"byteOffset":6023688,
			"target":34963
		},
		{
			"buffer":0,
			"byteLength":1344,
			"byteOffset":6024720,
			"target":34962
		},
		{
			"buffer":0,
			"byteLength":1344,
			"byteOffset":6026064,
			"target":34962
		},
		{
			"buffer":0,
			"byteLength":896,
			"byteOffset":6027408,
			"target":34962
		},
		{
			"buffer":0,
			"byteLength":480,
			"byteOffset":6028304,
			"target":34963
		},
		{
			"buffer":0,
			"byteLength":672,
			"byteOffset":6028784,
			"target":34962
		},
		{
			"buffer":0,
			"byteLength":672,
			"byteOffset":6029456,
			"target":34962
		},
		{
			"buffer":0,
			"byteLength":448,
			"byteOffset":6030128,
			"target":34962
		},
		{
			"buffer":0,
			"byteLength":240,
			"byteOffset":6030576,
			"target":34963
		}
	],
	"samplers":[
		{
			"magFilter":9729,
			"minFilter":9987
		},
		{
			"magFilter":9729,
			"minFilter":9987,
			"wrapS":33648,
			"wrapT":33648
		}
	],
	"buffers":[
		{
			"byteLength":6030816,
			"uri":"Cristo.bin"
		}
	]
}
